<svg width="129" height="40" viewBox="0 0 129 40" fill="none" xmlns="http://www.w3.org/2000/svg">
<g clip-path="url(#clip0_201_5004)">
<path d="M15.9451 21.4995L13.0693 20.1956L13.0802 19.1706C13.0802 18.4789 12.4717 17.8885 11.2548 17.4068C10.4109 17.0736 9.48729 16.9106 8.48041 16.9106C7.47353 16.9106 6.54995 17.0772 5.70605 17.4068C4.4891 17.8994 3.88063 18.4861 3.88063 19.1706V32.5861C3.88063 33.2778 4.4891 33.8682 5.70605 34.3499C6.54995 34.6831 7.47353 34.8461 8.48041 34.8461C9.48729 34.8461 10.4109 34.6795 11.2548 34.3499C12.4717 33.8573 13.0802 33.2706 13.0802 32.5861V28.9678H13.2323L16.0972 30.326V32.5861C16.0972 34.426 14.9563 35.8168 12.6745 36.7621C11.3996 37.2945 10.0016 37.5625 8.48403 37.5625C6.96647 37.5625 5.56842 37.2945 4.29352 36.7621C2.01174 35.8132 0.87085 34.4224 0.87085 32.5824V19.167C0.87085 17.3271 2.01174 15.9363 4.29352 14.991C5.56842 14.4586 6.96647 14.1906 8.48403 14.1906C10.0016 14.1906 11.3996 14.4586 12.6745 14.991C14.9563 15.9363 16.0972 17.3271 16.0972 19.167V21.4995H15.9451Z" fill="#81FE88"/>
<path d="M16.0936 30.3223C16.0936 30.3223 13.4967 29.1995 13.0693 27.9102L13.0802 29.4748L16.0936 30.3223Z" fill="#81FE88"/>
<path d="M13.0259 22.1043L15.9017 23.4082L15.8908 24.4332C15.8908 25.125 16.4993 25.7153 17.7162 26.197C18.5601 26.5303 19.4837 26.6932 20.4906 26.6932C21.4938 26.6932 22.421 26.5266 23.2649 26.197C24.4819 25.7045 25.0904 25.1177 25.0904 24.4332V11.0214C25.0904 10.3296 24.4819 9.73924 23.2649 9.25753C22.421 8.92431 21.4975 8.76133 20.4906 8.76133C19.4873 8.76133 18.5601 8.92793 17.7162 9.25753C16.4993 9.7501 15.8908 10.3368 15.8908 11.0214V14.6396H15.7387L12.8738 13.2814V11.0214C12.8738 9.18147 14.0147 7.79067 16.2965 6.84536C17.5714 6.31294 18.9694 6.04492 20.487 6.04492C22.0045 6.04492 23.4026 6.31294 24.6775 6.84536C26.9593 7.79067 28.1001 9.18147 28.1001 11.0214V24.4368C28.1001 26.2767 26.9593 27.6675 24.6775 28.6128C23.4026 29.1452 22.0045 29.4133 20.487 29.4133C18.9694 29.4133 17.5714 29.1452 16.2965 28.6128C14.0147 27.6675 12.8738 26.2767 12.8738 24.4368V22.1043H13.0259Z" fill="#81FE88"/>
<path d="M12.8774 13.2814C12.8774 13.2814 15.4743 14.4042 15.9017 15.6935L15.8908 14.1289L12.8774 13.2814Z" fill="#81FE88"/>
<path d="M45.6481 31.8436V34.6179C45.6481 35.7371 44.8549 36.6136 43.2685 37.2402C42.4101 37.5698 41.4431 37.7364 40.3638 37.7364C39.2845 37.7364 38.3174 37.5698 37.459 37.2402C35.8727 36.6136 35.0795 35.7371 35.0795 34.6179V26.3419C35.0795 25.2228 35.8727 24.3463 37.459 23.7197C38.3174 23.3901 39.2845 23.2235 40.3638 23.2235C41.4431 23.2235 42.4101 23.3901 43.2685 23.7197C44.8549 24.3463 45.6481 25.2228 45.6481 26.3419V27.9718L43.2287 29.1163H43.1019V26.7874C43.1019 26.3637 42.8375 26.045 42.3051 25.8313C41.7763 25.6176 41.128 25.5125 40.3638 25.5125C39.5996 25.5125 38.9513 25.6176 38.4225 25.8313C37.8937 26.045 37.6256 26.3601 37.6256 26.7874V34.1724C37.6256 34.5962 37.89 34.9149 38.4225 35.1286C38.9513 35.3423 39.5996 35.4473 40.3638 35.4473C41.128 35.4473 41.7763 35.3423 42.3051 35.1286C42.8339 34.9149 43.1019 34.5998 43.1019 34.1724V32.9881L45.5213 31.8436H45.6481Z" fill="#E1E1E1"/>
<path d="M49.3387 34.6179V26.3419C49.3387 25.2228 50.1319 24.3463 51.7183 23.7197C52.5767 23.3901 53.5437 23.2235 54.6231 23.2235C55.7024 23.2235 56.6694 23.3901 57.5278 23.7197C59.1142 24.3463 59.9074 25.2228 59.9074 26.3419V34.6179C59.9074 35.7371 59.1142 36.6136 57.5278 37.2402C56.6694 37.5698 55.7024 37.7364 54.6231 37.7364C53.5437 37.7364 52.5767 37.5698 51.7183 37.2402C50.1319 36.6136 49.3387 35.7371 49.3387 34.6179ZM51.8849 34.1724C51.8849 34.5962 52.1493 34.9149 52.6817 35.1286C53.2142 35.3423 53.8588 35.4473 54.6231 35.4473C55.3873 35.4473 56.0356 35.3423 56.5644 35.1286C57.0932 34.9149 57.3612 34.5998 57.3612 34.1724V26.7874C57.3612 26.3637 57.0968 26.045 56.5644 25.8313C56.032 25.6176 55.3873 25.5125 54.6231 25.5125C53.8588 25.5125 53.2105 25.6176 52.6817 25.8313C52.1529 26.045 51.8849 26.3601 51.8849 26.7874V34.1724Z" fill="#E1E1E1"/>
<path d="M63.5945 37.9935V26.3419C63.5945 25.2047 64.3877 24.3318 65.9741 23.7197C66.8324 23.3901 67.7995 23.2235 68.8788 23.2235C69.9581 23.2235 70.9252 23.3901 71.7835 23.7197C73.3699 24.3318 74.1631 25.2047 74.1631 26.3419V36.8454L71.7437 36.9033H71.6169V26.7838C71.6169 26.3601 71.3525 26.0413 70.8201 25.8276C70.2913 25.6139 69.643 25.5089 68.8788 25.5089C68.1146 25.5089 67.4663 25.6139 66.9375 25.8276C66.4087 26.0413 66.1407 26.3564 66.1407 26.7838V36.8418L63.7213 37.9863H63.5945V37.9935Z" fill="#E1E1E1"/>
<path d="M77.8539 37.9935V26.3419C77.8539 25.2047 78.6471 24.3318 80.2335 23.7197C81.0918 23.3901 82.0589 23.2235 83.1382 23.2235C84.2175 23.2235 85.1846 23.3901 86.0429 23.7197C87.6293 24.3318 88.4225 25.2047 88.4225 26.3419V36.8454L86.0031 37.9899H85.8763V26.7838C85.8763 26.3601 85.6119 26.0413 85.0795 25.8276C84.5507 25.6139 83.9024 25.5089 83.1382 25.5089C82.374 25.5089 81.7257 25.6139 81.1969 25.8276C80.6681 26.0413 80.4001 26.3564 80.4001 26.7838V36.8418L77.9806 37.9863H77.8539V37.9935Z" fill="#E1E1E1"/>
<path d="M102.682 31.8436V34.6179C102.682 35.7371 101.889 36.6136 100.302 37.2402C99.4438 37.5698 98.4768 37.7364 97.3975 37.7364C96.3182 37.7364 95.3511 37.5698 94.4927 37.2402C92.9063 36.6136 92.1132 35.7371 92.1132 34.6179V26.3419C92.1132 25.2228 92.9063 24.3463 94.4927 23.7197C95.3511 23.3901 96.3182 23.2235 97.3975 23.2235C98.4768 23.2235 99.4438 23.3901 100.302 23.7197C101.889 24.3463 102.682 25.2228 102.682 26.3419V27.9718L94.6593 34.1398C94.6593 34.5745 94.9237 34.9004 95.4561 35.1178C95.9849 35.3351 96.6333 35.4437 97.3975 35.4437C98.1617 35.4437 98.81 35.3387 99.3388 35.125C99.8676 34.9113 100.136 34.5962 100.136 34.1688V32.9845L102.555 31.84H102.682V31.8436ZM94.6593 31.4886L100.136 27.2873V26.9577C100.136 26.476 99.8712 26.1174 99.3388 25.8783C98.8064 25.6393 98.1617 25.5198 97.3975 25.5198C96.6333 25.5198 95.9849 25.6248 95.4561 25.8385C94.9274 26.0522 94.6593 26.3673 94.6593 26.7947V31.4923V31.4886Z" fill="#E1E1E1"/>
<path d="M116.938 31.8436V34.6179C116.938 35.7371 116.144 36.6136 114.558 37.2402C113.7 37.5698 112.733 37.7364 111.653 37.7364C110.574 37.7364 109.607 37.5698 108.748 37.2402C107.162 36.6136 106.369 35.7371 106.369 34.6179V26.3419C106.369 25.2228 107.162 24.3463 108.748 23.7197C109.607 23.3901 110.574 23.2235 111.653 23.2235C112.733 23.2235 113.7 23.3901 114.558 23.7197C116.144 24.3463 116.938 25.2228 116.938 26.3419V27.9718L114.518 29.1163H114.391V26.7874C114.391 26.3637 114.127 26.045 113.595 25.8313C113.062 25.6176 112.417 25.5125 111.653 25.5125C110.889 25.5125 110.241 25.6176 109.712 25.8313C109.183 26.045 108.915 26.3601 108.915 26.7874V34.1724C108.915 34.5962 109.179 34.9149 109.712 35.1286C110.244 35.3423 110.889 35.4473 111.653 35.4473C112.417 35.4473 113.066 35.3423 113.595 35.1286C114.123 34.9149 114.391 34.5998 114.391 34.1724V32.9881L116.811 31.8436H116.938Z" fill="#E1E1E1"/>
<path d="M122.309 37.9935V25.795H119.035V25.6682L120.067 23.477H122.309V18.8917L124.728 17.7472H124.855V23.477H128.129V23.6038L127.097 25.795H124.855V36.849L122.435 37.9935H122.309Z" fill="#E1E1E1"/>
<path d="M45.6444 14.0964V16.8707C45.6444 17.9899 44.8512 18.8664 43.2649 19.493C42.4065 19.8226 41.4394 19.9892 40.3601 19.9892C39.2808 19.9892 38.3138 19.8226 37.4554 19.493C35.869 18.8664 35.0758 17.9899 35.0758 16.8707V8.59475C35.0758 7.47559 35.869 6.5991 37.4554 5.97252C38.3138 5.64292 39.2808 5.47632 40.3601 5.47632C41.4394 5.47632 42.4065 5.64292 43.2649 5.97252C44.8512 6.5991 45.6444 7.47559 45.6444 8.59475V10.2246L43.225 11.3691H43.0983V9.04024C43.0983 8.61648 42.8339 8.29776 42.3014 8.08407C41.7727 7.87038 41.1243 7.76534 40.3601 7.76534C39.5959 7.76534 38.9476 7.87038 38.4188 8.08407C37.89 8.29776 37.622 8.61286 37.622 9.04024V16.4253C37.622 16.849 37.8864 17.1677 38.4188 17.3814C38.9476 17.5951 39.5959 17.7002 40.3601 17.7002C41.1243 17.7002 41.7727 17.5951 42.3014 17.3814C42.8302 17.1677 43.0983 16.8526 43.0983 16.4253V15.2409L45.5177 14.0964H45.6444Z" fill="#888888"/>
<path d="M49.3351 16.8707V8.59475C49.3351 7.47559 50.1283 6.5991 51.7147 5.97252C52.573 5.64292 53.5401 5.47632 54.6194 5.47632C55.6987 5.47632 56.6658 5.64292 57.5241 5.97252C59.1105 6.5991 59.9037 7.47559 59.9037 8.59475V16.8707C59.9037 17.9899 59.1105 18.8664 57.5241 19.493C56.6658 19.8226 55.6987 19.9892 54.6194 19.9892C53.5401 19.9892 52.573 19.8226 51.7147 19.493C50.1283 18.8664 49.3351 17.9899 49.3351 16.8707ZM51.8813 16.4253C51.8813 16.849 52.1457 17.1677 52.6781 17.3814C53.2105 17.5951 53.8552 17.7002 54.6194 17.7002C55.3836 17.7002 56.0319 17.5951 56.5607 17.3814C57.0895 17.1677 57.3575 16.8526 57.3575 16.4253V9.04024C57.3575 8.61648 57.0931 8.29776 56.5607 8.08407C56.0283 7.87038 55.3836 7.76534 54.6194 7.76534C53.8552 7.76534 53.2069 7.87038 52.6781 8.08407C52.1493 8.29776 51.8813 8.61286 51.8813 9.04024V16.4253Z" fill="#888888"/>
<path d="M63.5908 16.8707V8.59471C63.5908 7.45744 64.384 6.58457 65.9704 5.97247C66.8288 5.64288 67.7958 5.47628 68.8751 5.47628C69.8856 5.47628 70.7984 5.62115 71.6133 5.9109V1.14451L74.0327 0H74.1595V16.8707C74.1595 18.008 73.3663 18.8808 71.7799 19.4929C70.9215 19.8225 69.9545 19.9891 68.8751 19.9891C67.7958 19.9891 66.8288 19.8225 65.9704 19.4929C64.384 18.8664 63.5908 17.9899 63.5908 16.8707ZM66.137 16.4252C66.137 16.849 66.4014 17.1677 66.9338 17.3814C67.4626 17.5951 68.1109 17.7001 68.8751 17.7001C69.6394 17.7001 70.2877 17.5951 70.8165 17.3814C71.3453 17.1677 71.6133 16.8526 71.6133 16.4252V9.0402C71.6133 8.61644 71.3489 8.29772 70.8165 8.08403C70.2877 7.87034 69.6394 7.7653 68.8751 7.7653C68.1109 7.7653 67.4626 7.87034 66.9338 8.08403C66.405 8.29772 66.137 8.61282 66.137 9.0402V16.4252Z" fill="#888888"/>
<path d="M89.0562 14.0964V16.8707C89.0562 17.9899 88.263 18.8664 86.6766 19.493C85.8182 19.8226 84.8512 19.9892 83.7719 19.9892C82.6925 19.9892 81.7255 19.8226 80.8671 19.493C79.2807 18.8664 78.4875 17.9899 78.4875 16.8707V8.59475C78.4875 7.47559 79.2807 6.5991 80.8671 5.97252C81.7255 5.64292 82.6925 5.47632 83.7719 5.47632C84.8512 5.47632 85.8182 5.64292 86.6766 5.97252C88.263 6.5991 89.0562 7.47559 89.0562 8.59475V10.2246L81.0337 16.3927C81.0337 16.8273 81.2981 17.1532 81.8305 17.3706C82.3593 17.5879 83.0076 17.6965 83.7719 17.6965C84.5361 17.6965 85.1844 17.5915 85.7132 17.3778C86.242 17.1641 86.51 16.849 86.51 16.4216V15.2373L88.9294 14.0928H89.0562V14.0964ZM81.0337 13.7414L86.51 9.54006V9.21047C86.51 8.72876 86.2456 8.3702 85.7132 8.13115C85.1844 7.89211 84.5361 7.77259 83.7719 7.77259C83.0076 7.77259 82.3593 7.87762 81.8305 8.09131C81.3017 8.305 81.0337 8.62011 81.0337 9.04749V13.7451V13.7414Z" fill="#888888"/>
<path d="M77.861 36.2659V36.5592C77.861 38.2326 74.1414 38.0696 74.1414 36.5592V36.2659H71.6024V37.0047C71.6024 38.1384 72.3956 39.0113 73.9784 39.6197C75.2859 40.1232 76.7093 40.1268 78.0276 39.6197C79.6104 39.0113 80.4 38.1384 80.4 37.0047V36.2659H77.861Z" fill="#81FE88"/>
</g>
<defs>
<clipPath id="clip0_201_5004">
<rect width="127.258" height="40" fill="white" transform="translate(0.87085)"/>
</clipPath>
</defs>
</svg>
